<?xml version="1.0" standalone="no"?>
<!DOCTYPE svg PUBLIC "-//W3C//DTD SVG 20010904//EN"
 "http://www.w3.org/TR/2001/REC-SVG-20010904/DTD/svg10.dtd">
<svg version="1.0" xmlns="http://www.w3.org/2000/svg"
 width="512.000000pt" height="512.000000pt" viewBox="0 0 512.000000 512.000000"
 preserveAspectRatio="xMidYMid meet">
<metadata>
Created by potrace 1.11, written by Peter Selinger 2001-2013
</metadata>
<g transform="translate(0.000000,512.000000) scale(0.100000,-0.100000)"
fill="#000000" stroke="none">
<path d="M1110 5028 c-173 -61 -292 -193 -347 -388 -17 -62 -18 -151 -18
-1845 0 -1422 3 -1793 13 -1845 84 -420 382 -741 787 -850 49 -13 125 -24 197
-27 l117 -6 30 31 c25 25 31 39 31 74 0 80 -51 118 -158 118 -33 0 -102 11
-154 24 -308 78 -536 307 -619 623 -17 63 -22 121 -26 304 l-6 225 268 465
c357 617 342 594 407 654 106 98 223 119 343 60 66 -32 140 -112 157 -168 19
-64 14 -172 -12 -241 -13 -33 -87 -171 -166 -307 l-144 -248 0 -187 0 -186 34
-34 c46 -46 101 -48 148 -5 l33 29 3 162 3 162 103 176 c211 363 231 412 231
577 0 113 -23 196 -76 279 -80 127 -235 223 -392 244 l-56 7 18 41 c48 106
150 175 260 178 102 2 156 -19 222 -83 93 -92 102 -127 106 -406 2 -126 6
-239 8 -251 3 -11 17 -33 31 -47 53 -54 163 -26 178 45 3 12 7 131 9 263 3
224 5 244 27 300 33 85 108 158 185 181 170 49 320 -26 386 -193 21 -53 23
-79 28 -303 4 -169 10 -252 19 -267 20 -35 53 -53 100 -53 35 0 49 6 73 29
l29 29 0 1049 c0 680 4 1071 11 1113 21 131 87 230 184 276 60 29 167 32 237
8 104 -35 179 -144 198 -286 13 -100 13 -3365 0 -3479 -34 -297 -209 -546
-474 -674 -107 -51 -192 -75 -296 -82 -138 -9 -180 -37 -180 -120 0 -36 6 -50
29 -74 28 -28 33 -29 118 -29 174 0 366 59 530 162 207 130 359 323 441 558
60 174 57 67 57 2005 0 1695 -1 1783 -18 1845 -32 113 -75 190 -146 261 -108
108 -211 149 -375 149 -80 0 -115 -5 -168 -24 -166 -59 -288 -197 -345 -391
-15 -54 -17 -127 -21 -716 l-3 -657 -54 33 c-70 42 -164 65 -262 65 -162 0
-299 -62 -396 -177 l-33 -40 -32 37 c-44 53 -139 114 -219 141 -53 18 -91 23
-168 23 -110 1 -171 -14 -262 -65 l-52 -29 -4 663 c-3 599 -5 668 -21 722 -43
147 -120 259 -226 329 -95 64 -146 79 -280 83 -100 3 -124 0 -180 -19z m295
-222 c99 -47 165 -148 185 -281 6 -42 10 -389 10 -877 l0 -806 -65 -47 c-36
-25 -87 -73 -113 -106 -27 -33 -141 -219 -253 -413 l-204 -354 -3 1257 c-2
805 1 1287 8 1341 17 147 90 257 194 294 67 24 182 20 241 -8z"/>
</g>
</svg>
